<svg width="60" height="60" viewBox="0 0 60 60" fill="none" xmlns="http://www.w3.org/2000/svg">
  <!-- Finance Logo Background Circle -->
  <circle cx="30" cy="30" r="28" fill="#1E40AF" stroke="#1D4ED8" stroke-width="2"/>
  
  <!-- Government Building/Treasury Shape -->
  <rect x="15" y="35" width="30" height="15" fill="#FFFFFF" stroke="#1E40AF" stroke-width="1"/>
  
  <!-- Building Columns -->
  <rect x="18" y="25" width="3" height="15" fill="#FFFFFF"/>
  <rect x="24" y="25" width="3" height="15" fill="#FFFFFF"/>
  <rect x="30" y="25" width="3" height="15" fill="#FFFFFF"/>
  <rect x="36" y="25" width="3" height="15" fill="#FFFFFF"/>
  <rect x="42" y="25" width="3" height="15" fill="#FFFFFF"/>
  
  <!-- Building Roof/Triangle -->
  <polygon points="12,25 30,15 48,25" fill="#FFFFFF" stroke="#1E40AF" stroke-width="1"/>
  
  <!-- Philippine Peso Symbol -->
  <text x="30" y="45" text-anchor="middle" fill="#1E40AF" font-family="Arial, sans-serif" font-weight="bold" font-size="8">₱</text>
  
  <!-- Decorative Stars (Government Theme) -->
  <polygon points="15,10 16,13 19,13 17,15 18,18 15,16 12,18 13,15 11,13 14,13" fill="#FBBF24"/>
  <polygon points="45,10 46,13 49,13 47,15 48,18 45,16 42,18 43,15 41,13 44,13" fill="#FBBF24"/>
  
  <!-- Small decorative elements -->
  <circle cx="10" cy="30" r="1.5" fill="#FBBF24"/>
  <circle cx="50" cy="30" r="1.5" fill="#FBBF24"/>
</svg>